<?xml version="1.0" encoding="utf-8"?>
<!-- Generator: Adobe Illustrator 21.1.0, SVG Export Plug-In . SVG Version: 6.00 Build 0)  -->
<svg version="1.1" id="Layer_1" xmlns="http://www.w3.org/2000/svg" xmlns:xlink="http://www.w3.org/1999/xlink" x="0px" y="0px"
	 viewBox="0 0 1326 720" style="enable-background:new 0 0 1326 720;" xml:space="preserve">
<style type="text/css">
	.st0{fill:#FEFEFE;}
	.st1{fill:#676464;}
	.st2{fill:#061E2E;}
</style>
<g>
	<path class="st0" d="M267.7,216.6c342,0,684,0,1026-0.1c3.4,0,4.1,0.8,4.1,4.1c-0.1,93.7-0.1,187.5,0,281.2c0,3.1-0.6,3.7-3.7,3.7
		c-405-0.1-810-0.1-1215.1,0c-3.1,0-3.7-0.6-3.7-3.7c0.1-93.9,0.1-187.8,0-281.6c0-3.1,0.6-3.7,3.7-3.7c44.1,0.1,88.2,0.1,132.3,0.1
		c-4.5,2.8-8.8,5.7-11.6,10.6c-39.7,68.8-79.4,137.6-119.1,206.4c-4.7,8.1-4.7,16,0,24.1c6.5,11,12.9,22.1,19.1,33.3
		c4.7,8.4,11.7,12.3,21.2,12.3c79.3,0,158.5,0,237.8,0c9.1,0,16-3.8,20.6-11.8c6.3-11.1,12.6-22.3,19.2-33.2c5.1-8.5,5-16.7,0-25.2
		c-39.1-67.5-78.1-135-117-202.5C278.1,224.5,274,219.6,267.7,216.6z M1157.6,446.6c17,0,34,0,51,0c3,0,5.9-0.2,7.6-2.8
		c3.7-5.4,7.9-10.8,9.5-17.1c2-8,0.6-11.1-7.9-11c-29.5,0.3-59,0.1-88.5,0.1c-5.6,0-6.2-0.7-6.3-6.1c0-9.4,0-18.8,0-28.2
		c0-5.9,0.7-6.6,6.7-6.6c19.8,0,39.6,0,59.4,0c5.6,0,7.4-1.8,7.4-7.5c0-4.8,0-9.5,0-14.3c0-7-1.7-8.7-8.7-8.7
		c-19.8,0-39.6-0.1-59.4,0.1c-4,0-5.6-1.3-5.6-5.4c0.2-9.5,0.2-19.1,0-28.6c-0.1-4.3,1.5-5.7,5.8-5.6c21.5,0.2,42.9,0.1,64.4,0.1
		c8.8,0,17.6,0,26.4,0c5.3,0,6.7-1.7,6.8-7c0-2.9-0.7-5.6-2.1-8.1c-1.9-3.2-4-6.3-5.6-9.6c-2.3-4.8-6-6.4-11.2-6.3
		c-31.9,0.1-63.8,0.3-95.6-0.1c-8.1-0.1-12.7,2.5-16.6,9.6c-3.9,7-5.8,13.8-5.8,21.9c0.3,35.5,0.5,70.9-0.1,106.4
		c-0.2,10.7,1.8,20.1,7.9,28.9c2.7,4,5.5,6.1,10.5,6C1124.2,446.5,1140.9,446.6,1157.6,446.6z M565.6,446.6c3.6,0,7.2-0.1,10.7,0
		c3.9,0.2,6.4-1.6,8.1-5c23.9-47.1,47.9-94.3,71.9-141.4c1.4-2.7,1.7-5.4,0.2-8.1c-2.6-4.7-5.1-9.4-8-13.9c-4.3-6.6-16.6-5.9-20,1.1
		c-19.5,38.9-39.1,77.8-58.6,116.6c-1,1.9-1.5,4.5-4.4,4.4c-2.8-0.1-3.4-2.7-4.3-4.6c-19.5-38.7-39-77.5-58.4-116.2
		c-1.4-2.9-2.7-5.6-6.7-5.5c-5.1,0.2-10.6-1.1-13.9,4.7c-1.9,3.5-3.8,7.1-6.1,10.4c-2.9,4.3-2.9,8.2-0.5,12.9
		c9.6,18.4,18.9,37,28.3,55.6c14.2,27.9,28.5,55.8,42.6,83.8c1.8,3.6,4.3,5.4,8.4,5.2C558.4,446.4,562,446.6,565.6,446.6z
		 M926.4,446.6c3.4,0,6.9-0.2,10.3,0c4.3,0.3,6.9-1.7,8.7-5.5c8.8-17.5,17.7-35,26.6-52.4c14.7-28.9,29.3-57.7,44.1-86.5
		c1.7-3.3,3-6.6,1.1-10.1c-2.6-4.7-5.1-9.4-8-13.9c-4.4-6.6-16.5-5.8-20,1.2c-19.5,38.7-39,77.5-58.5,116.2c-1,2-1.4,4.9-4.6,4.7
		c-2.9-0.1-3.3-2.7-4.3-4.6c-19.4-38.6-38.9-77.2-58.3-115.8c-1.5-3-2.7-6-6.9-5.9c-5.3,0.1-10.9-0.8-14.1,5.2
		c-1.9,3.5-3.9,7-6.1,10.4c-2.6,4-2.6,7.8-0.4,12.1c11.7,22.7,23.2,45.5,34.8,68.3c12,23.7,24.1,47.4,36.1,71.1c2,4,4.7,5.8,9.1,5.6
		C919.5,446.4,922.9,446.6,926.4,446.6z M763.1,360.7c0-13.7,0-27.4,0-41.1c0-12.4,0-24.7,0-37.1c0-5.8-2.7-8.4-8.5-8.5
		c-3,0-6,0-8.9,0c-2.5,0-5.1,0.4-6.4,2.5c-4.7,7.6-10.7,14.3-10.7,24.3c0.2,44.7,0.1,89.3,0.1,134c0,1.3,0,2.7,0.1,4
		c0.4,5.4,2.8,7.7,8.3,7.8c5.4,0.1,10.7,0,16.1,0c8,0,10-2.1,10-10C763.1,411.3,763.1,386,763.1,360.7z"/>
	<path class="st1" d="M267.7,216.6c6.3,3,10.4,7.9,13.9,13.9c38.9,67.6,77.9,135.1,117,202.5c5,8.6,5.1,16.7,0,25.2
		c-6.6,11-12.9,22.1-19.2,33.2c-4.6,8-11.4,11.8-20.6,11.8c-79.3,0-158.5,0-237.8,0c-9.5,0-16.5-3.9-21.2-12.3
		c-6.2-11.2-12.7-22.2-19.1-33.3c-4.7-8.1-4.7-16,0-24.1c39.8-68.8,79.5-137.6,119.1-206.4c2.8-4.9,7.1-7.8,11.6-10.6
		C230.2,216.6,249,216.6,267.7,216.6z M239.7,463.8c20.9,0,41.6-3.2,58.8-9.2c20.3-7,32.6-27.4,28.4-48.3
		c-8-39.7-27.2-73.3-56.7-101c-17.9-16.8-43-16.9-60.8-0.2c-26.3,24.7-44.4,54.5-54.1,89.3c-1.9,6.7-3.9,13.5-3.6,20.6
		c1,19.5,13,34.6,31.7,40.4C201.7,461.1,220.5,463.9,239.7,463.8z"/>
	<path class="st2" d="M1157.6,446.6c-16.7,0-33.4-0.1-50.1,0.1c-4.9,0.1-7.7-2.1-10.5-6c-6.1-8.8-8-18.2-7.9-28.9
		c0.5-35.4,0.4-70.9,0.1-106.4c-0.1-8.1,1.9-14.9,5.8-21.9c3.9-7.1,8.6-9.7,16.6-9.6c31.9,0.4,63.8,0.2,95.6,0.1
		c5.2,0,8.8,1.6,11.2,6.3c1.6,3.3,3.7,6.4,5.6,9.6c1.5,2.5,2.2,5.1,2.1,8.1c-0.1,5.3-1.6,7-6.8,7c-8.8,0-17.6,0-26.4,0
		c-21.5,0-42.9,0.1-64.4-0.1c-4.3,0-5.9,1.3-5.8,5.6c0.2,9.5,0.2,19.1,0,28.6c-0.1,4.1,1.5,5.4,5.6,5.4c19.8-0.1,39.6-0.1,59.4-0.1
		c6.9,0,8.6,1.8,8.7,8.7c0,4.8,0,9.5,0,14.3c0,5.7-1.8,7.5-7.4,7.5c-19.8,0-39.6,0-59.4,0c-6.1,0-6.7,0.7-6.7,6.6
		c0,9.4,0,18.8,0,28.2c0,5.4,0.7,6.1,6.3,6.1c29.5,0,59,0.2,88.5-0.1c8.5-0.1,9.9,3,7.9,11c-1.6,6.3-5.8,11.7-9.5,17.1
		c-1.7,2.6-4.7,2.8-7.6,2.8C1191.5,446.5,1174.5,446.6,1157.6,446.6z"/>
	<path class="st2" d="M565.6,446.6c-3.6,0-7.2-0.1-10.7,0c-4.1,0.2-6.6-1.6-8.4-5.2c-14.1-28-28.4-55.9-42.6-83.8
		c-9.4-18.5-18.7-37.1-28.3-55.6c-2.4-4.7-2.4-8.6,0.5-12.9c2.3-3.3,4.1-6.9,6.1-10.4c3.2-5.8,8.8-4.5,13.9-4.7
		c4-0.2,5.3,2.6,6.7,5.5c19.4,38.8,38.9,77.5,58.4,116.2c1,1.9,1.5,4.5,4.3,4.6c2.9,0.1,3.4-2.5,4.4-4.4
		c19.6-38.9,39.1-77.7,58.6-116.6c3.5-6.9,15.7-7.7,20-1.1c2.9,4.5,5.4,9.2,8,13.9c1.5,2.7,1.2,5.4-0.2,8.1
		c-24,47.1-48,94.2-71.9,141.4c-1.7,3.4-4.2,5.2-8.1,5C572.8,446.5,569.2,446.6,565.6,446.6z"/>
	<path class="st2" d="M926.4,446.6c-3.4,0-6.9-0.2-10.3,0c-4.4,0.3-7.2-1.6-9.1-5.6c-11.9-23.7-24-47.4-36.1-71.1
		c-11.6-22.8-23.1-45.6-34.8-68.3c-2.2-4.3-2.3-8.1,0.4-12.1c2.2-3.4,4.2-6.9,6.1-10.4c3.2-6,8.8-5.1,14.1-5.2
		c4.2-0.1,5.4,2.9,6.9,5.9c19.4,38.6,38.8,77.2,58.3,115.8c1,1.9,1.4,4.5,4.3,4.6c3.2,0.1,3.6-2.7,4.6-4.7
		c19.5-38.7,39-77.5,58.5-116.2c3.5-7,15.6-7.8,20-1.2c2.9,4.5,5.5,9.2,8,13.9c1.9,3.6,0.6,6.8-1.1,10.1
		c-14.7,28.8-29.4,57.7-44.1,86.5c-8.9,17.5-17.8,34.9-26.6,52.4c-1.9,3.8-4.4,5.7-8.7,5.5C933.2,446.4,929.8,446.6,926.4,446.6z"/>
	<path class="st2" d="M763.1,360.7c0,25.3,0,50.6,0,75.9c0,7.9-2.1,10-10,10c-5.4,0-10.7,0.1-16.1,0c-5.4-0.1-7.8-2.3-8.3-7.8
		c-0.1-1.3-0.1-2.7-0.1-4c0-44.7,0.1-89.3-0.1-134c-0.1-10,6-16.8,10.7-24.3c1.3-2.1,4-2.5,6.4-2.5c3,0,6,0,8.9,0
		c5.8,0.1,8.4,2.7,8.5,8.5c0.1,12.4,0,24.7,0,37.1C763.1,333.3,763.1,347,763.1,360.7z"/>
	<path class="st0" d="M239.7,463.8c-19.2,0.1-37.9-2.7-56.2-8.4c-18.7-5.8-30.6-20.9-31.7-40.4c-0.4-7,1.7-13.9,3.6-20.6
		c9.7-34.8,27.7-64.6,54.1-89.3c17.8-16.7,42.9-16.6,60.8,0.2c29.5,27.7,48.7,61.3,56.7,101c4.2,20.9-8.1,41.3-28.4,48.3
		C281.2,460.5,260.5,463.8,239.7,463.8z"/>
</g>
</svg>
