<?xml version="1.0" encoding="utf-8"?>
<!-- Generator: Adobe Illustrator 17.1.0, SVG Export Plug-In . SVG Version: 6.00 Build 0)  -->
<!DOCTYPE svg PUBLIC "-//W3C//DTD SVG 1.1 Basic//EN" "http://www.w3.org/Graphics/SVG/1.1/DTD/svg11-basic.dtd">
<svg version="1.1" baseProfile="basic" xmlns="http://www.w3.org/2000/svg" xmlns:xlink="http://www.w3.org/1999/xlink" x="0px"
	 y="0px" viewBox="0 0 497 152.2" xml:space="preserve">
<g id="Layer_1" display="none">
</g>
<g id="Layer_2">
</g>
<g id="Layer_3">
	<g>
		<path fill="#2EABE2" d="M463.7,16.2c0.7,0.4,1.6,0.4,2.4,0.7c12.3,3.5,17.1,18.9,8.9,28.7c-3.7,4.4-8.3,6.7-14.1,6.6
			c-3.4,0-6.8,0-10.5,0c11,9.8,21.9,19.4,33,29.2c-3.6,0-6.7,0-9.9,0c-0.5,0-0.8-0.4-1.2-0.7c-7.8-6.9-15.5-13.8-23.3-20.7
			c-2.2-2-4.5-3.9-6.9-6.1c0,0.7,0,1.1,0,1.5c0,8.3,0,16.6,0,24.8c0,1-0.2,1.3-1.2,1.3c-1.5-0.1-3-0.1-4.6,0c-1,0.1-1.2-0.3-1.2-1.2
			c0-11.1,0-22.1,0-33.2c0-10.3,0-20.6,0-30.8C444.7,16.2,454.2,16.2,463.7,16.2z M442.1,34.2c0,3.3,0,6.6,0,9.8
			c0,1,0.2,1.3,1.2,1.3c5.9-0.1,11.8,0,17.7,0c4.1,0,7.3-1.8,9.4-5.3c2.2-3.6,2.2-7.4,0.2-11.2c-1.9-3.5-4.9-5.5-8.9-5.6
			c-6.2-0.2-12.5,0-18.7-0.1c-0.9,0-1,0.3-1,1.1C442.1,27.6,442.1,30.9,442.1,34.2z"/>
		<path fill="#2EABE2" d="M323.5,16.2c1,0.3,2,0.6,3.1,0.9c12,4,16.3,18.9,8.1,28.7c-3.6,4.2-8.1,6.4-13.7,6.4c-3.4,0-6.9,0-10.7,0
			c11,9.8,21.8,19.4,32.7,29c-0.4,0.4-0.7,0.2-1.1,0.2c-2.6,0-5.2,0-7.8,0c-0.8,0-1.4-0.2-1.9-0.7c-5.3-4.8-10.7-9.5-16-14.3
			c-4.6-4.1-9.3-8.3-14.2-12.6c0,0.6,0,1.1,0,1.5c0,8.3,0,16.6,0,24.8c0,1.1-0.3,1.4-1.3,1.3c-1.6-0.1-3.2,0-4.8,0
			c-0.6,0-0.9-0.2-0.8-0.8c0-0.3,0-0.6,0-1c0-20.6,0-41.3,0-61.9c0-0.5,0-1,0-1.6C304.5,16.2,314,16.2,323.5,16.2z M301.9,34.2
			c0,3.3,0,6.6,0,10c0,0.9,0.2,1.2,1.1,1.1c6,0,11.9,0,17.9,0c4.1,0,7.3-1.8,9.4-5.4c4.2-7-0.2-16.3-8.6-16.7
			c-6.3-0.3-12.5,0-18.8-0.1c-0.8,0-1,0.3-1,1C302,27.5,301.9,30.9,301.9,34.2z"/>
		<path fill="#2EABE2" d="M399.4,16.2c4.9,11.2,9.8,22.4,14.7,33.6c4.5,10.2,8.9,20.3,13.4,30.5c0.2,0.4,0.4,0.7,0.3,1.2
			c-2.2,0-4.5,0-6.7,0c-0.7,0-0.8-0.5-1-1c-2.6-6-5.3-12-7.9-18c-0.4-0.9-0.8-1.2-1.9-1.2c-9.1,0-18.2,0-27.4,0
			c-1,0-1.5,0.3-1.8,1.2c-2.6,6-5.2,12-7.8,18c-0.3,0.7-0.7,1-1.5,1c-1.7-0.1-3.4-0.1-5.2,0c-1,0-1.3-0.1-0.8-1.2
			c2.5-5.6,4.9-11.3,7.4-16.9c6.8-15.4,13.5-30.8,20.3-46.1c0.2-0.4,0.3-0.7,0.5-1.1C395.9,16.2,397.6,16.2,399.4,16.2z M396.7,27.3
			c-4.1,9.2-8,18.1-12,27.1c0.5,0,0.7,0,1,0c7.2,0,14.4,0,21.6,0c1.1,0,1.1-0.3,0.7-1.2c-2.4-5.5-4.9-11-7.3-16.6
			C399.5,33.6,398.2,30.6,396.7,27.3z"/>
		<path fill="#2EABE2" d="M237.1,16.2c1,3.1,2.4,6.1,3.6,9.1c5.8,14.3,11.7,28.5,17.5,42.8c0.2,0.4,0.4,0.9,0.7,1.5
			c0.9-2.3,1.8-4.4,2.6-6.5c6.1-15.2,12.3-30.4,18.4-45.6c0.2-0.4,0.4-0.9,0.6-1.3c2.4,0,4.8,0,7.2,0c-2.8,7.1-5.6,14.2-8.5,21.2
			c-5.8,14.4-11.6,28.7-17.4,43.1c-0.3,0.7-0.6,1-1.4,1c-1.4-0.1-3,0.4-4-0.2c-1.2-0.7-1.3-2.5-1.9-3.9c-8.3-20.4-16.7-40.8-25-61.2
			C232.2,16.2,234.7,16.2,237.1,16.2z"/>
		<path fill="#2EABE2" d="M380.2,16.2c-2.2,6.2-4.3,12.3-6.5,18.5c-5.3,15.2-10.6,30.4-15.8,45.6c-0.3,0.9-0.7,1.2-1.6,1.2
			c-1.6-0.1-3.2-0.1-4.8,0c-1.1,0.1-1.2-0.3-0.8-1.2c3.7-10.4,7.3-20.9,10.9-31.3c3.6-10.4,7.3-20.9,10.9-31.3
			c0.2-0.4,0.4-0.9,0.3-1.4C375.2,16.2,377.7,16.2,380.2,16.2z"/>
	</g>
	<g>
		<path fill="#09A2CC" d="M112.6,16.2c2.1,0.6,4.2,0.7,6.3,0.9c5.4,0.7,10.7,1.4,16.1,2.1c5.2,0.7,10.4,1.3,15.7,2
			c5.3,0.7,10.7,1.4,16,2.1c5.3,0.7,10.6,1.4,15.9,2c1.5,0.2,2.9,0.3,4.4,0.6c0.5,0.1,1.1,0.1,1,0.9c-0.1,0.1-0.2,0.2-0.2,0.3
			c-2.7,7.5-5.4,15.1-8.1,22.6c-1.8,5.1-3.6,10.2-5.4,15.3c-3.4,9.4-6.8,18.8-10.1,28.2c-1.5,4-3,8.1-4.4,12.2c-1,2.9-2.2,5.7-3,8.7
			c-0.6,0.6-1.3,0.5-2.1,0.3c-14.3-3.3-28.7-6.6-43-9.9c-0.2,0-0.3-0.1-0.4-0.2c0-29.4,0-58.7,0-88.1
			C111.6,16.2,112.1,16.2,112.6,16.2z"/>
		<path fill="#2BAAE2" d="M111.1,16.2c0,29.4,0,58.7,0,88.1c-4,1-8.1,1.9-12.1,2.9c-10.5,2.4-21.1,4.8-31.6,7.3
			c-0.4,0.1-0.8,0.4-1.2,0c0-0.2-0.1-0.4-0.2-0.6C64,108,62,102.2,59.9,96.4c-1.7-4.9-3.5-9.8-5.2-14.7c-3.3-9.3-6.7-18.7-10-28
			c-1.5-4-2.9-8.1-4.4-12.1c-1.8-5.1-3.6-10.3-5.4-15.4c4.1-0.6,8.3-1.1,12.4-1.7c5.3-0.7,10.5-1.3,15.8-2c4.7-0.6,9.5-1.2,14.2-1.8
			c6.6-0.9,13.2-1.7,19.8-2.6c4.1-0.5,8.2-1,12.3-1.5c0.3,0,0.6,0,0.8-0.2C110.5,16.2,110.8,16.2,111.1,16.2z"/>
		<path fill="#09A2CC" d="M13,37.6c3.4-0.8,6.7-1.9,10-2.8c1.4-0.4,1.4-0.4,1.2,1.1c-0.7,7.7-1.4,15.5-2.2,23.2
			c-0.5,5.1-1,10.2-1.4,15.4c-0.1,0.9-0.4,0.8-1,0.6c-2.2-0.6-4.3-1.6-6.6-1.9C13,61.3,13,49.4,13,37.6z"/>
		<path fill="#19A3D6" d="M34.8,26.1c1.8,5.1,3.6,10.3,5.4,15.4c1.4,4.1,2.9,8.1,4.4,12.1c3.3,9.3,6.7,18.7,10,28
			c1.8,4.9,3.5,9.8,5.2,14.7c2.1,5.8,4.1,11.6,6.2,17.4c0.1,0.2,0.1,0.4,0.2,0.6c-4.2-2.4-8.5-4.8-12.7-7.1
			c-9.4-5.3-18.8-10.7-28.2-16c-0.9-0.5-1.1-1-0.9-2c1.2-7.3,2.3-14.6,3.5-21.8c1.1-7.2,2.3-14.3,3.5-21.5c1-6.3,2-12.6,3-18.9
			C34.4,26.7,34.3,26.2,34.8,26.1z"/>
		<path fill="#19A3D6" d="M156.7,114.1c0.7-3,2-5.8,3-8.7c1.4-4.1,2.9-8.1,4.4-12.2c3.4-9.4,6.8-18.8,10.1-28.2
			c1.8-5.1,3.6-10.2,5.4-15.3c2.7-7.5,5.4-15.1,8.1-22.6c0-0.1,0.1-0.2,0.2-0.3c0.5,2.8,1,5.6,1.4,8.4c1,6.3,2,12.6,3,18.9
			c1.2,7.3,2.3,14.6,3.5,22c0.7,4.5,1.4,9.1,2.2,13.6c0.1,0.8-0.1,1.2-0.8,1.6c-10.6,6-21.1,12-31.7,18
			C162.7,110.8,159.7,112.4,156.7,114.1z"/>
		<path fill="#09A2CC" d="M209.5,55.5c0,5.4,0,10.9,0,16.3c0,0.9-0.2,1.3-1.1,1.5c-2,0.5-3.9,1.2-5.8,1.8c-0.6,0.2-0.7,0.1-0.8-0.5
			c-0.4-4.1-0.8-8.3-1.2-12.4c-0.5-4.8-0.9-9.7-1.4-14.5c-0.4-4.2-0.7-8.4-1.1-12.6c-0.1-0.6,0.2-0.6,0.6-0.5c3.4,1,6.7,2,10.1,2.9
			c0.7,0.2,0.6,0.7,0.6,1.2C209.5,44.3,209.5,49.9,209.5,55.5z"/>
	</g>
	<g>
		<path d="M444.3,114.9c0.1-0.2-0.1-0.2-0.3-0.3c-5.7-1.6-8-7.4-7.3-12.3c0.7-4.4,3-7.5,7.4-8.6c5.9-1.5,12.1,1,13.4,8
			c1.1,5.5-1.4,11.1-6.8,12.8c-0.3,0.1-0.8-0.1-1.1,0.4C447.9,114.9,446.1,114.9,444.3,114.9z M447.2,94.9c-5.2-0.2-8.9,3.6-8.9,9.1
			c-0.1,5.5,3.7,9.4,8.9,9.4c5.3,0,9.1-3.9,9-9.3C456.2,98.6,452.5,94.9,447.2,94.9z"/>
		<path d="M314.9,114.9c-0.1-0.4-0.4-0.3-0.7-0.4c-5.1-1.5-7.4-6.8-6.9-11.4c0.4-4,2.1-7.3,6-8.9c5.5-2.3,11.5-0.2,13.9,4.6
			c2.8,5.6,0.6,12.8-4.6,15.3c-0.7,0.3-1.4,0.3-2,0.8C318.7,114.9,316.8,114.9,314.9,114.9z M317.8,94.9c-4.9-0.2-8.8,3.2-8.9,9.1
			c-0.1,5.5,3.7,9.4,8.9,9.4c5.3,0,9-3.9,9-9.4C326.8,98.6,323.2,94.9,317.8,94.9z"/>
		<path d="M483.9,114.6c-0.8,0.2-1-0.5-1.4-0.9c-4.3-5.3-8.7-10.6-13-16c-0.4,0.3-0.2,0.8-0.2,1.1c0,4.9,0,9.8,0,14.6
			c0,0.6,0.2,1.1-0.8,1.1c-1,0-0.9-0.5-0.9-1.1c0-6.3,0-12.6,0-18.8c0-0.4-0.2-0.9,0.2-1.1c0.5-0.2,0.8,0.3,1,0.6
			c4.2,5.1,8.3,10.2,12.5,15.3c0.2,0.3,0.5,0.6,0.8,0.9c0.3-0.3,0.2-0.7,0.2-1c0-4.7,0-9.4,0-14c0-1.7,0-1.7,1.7-2
			C483.9,100.5,483.9,107.6,483.9,114.6z"/>
		<path d="M263.1,114.9c-0.4-0.5-1-0.5-1.5-0.6c-1.6-0.6-2.9-1.5-3.8-2.9c-0.2-0.3-0.9-0.7-0.2-1.1c0.5-0.4,1-0.7,1.6,0.2
			c2.5,3.5,8.3,3.9,11.6,1.9c1.3-0.8,1.8-2.1,1.6-3.6c-0.1-1.4-1.1-2.3-2.3-2.8c-1.9-0.8-3.9-1.1-5.9-1.5c-1.1-0.2-2.2-0.5-3.3-1
			c-1.7-0.7-2.9-1.8-3.1-3.8c-0.2-2,0.5-3.7,2.3-4.8c2.3-1.4,4.8-1.7,7.5-1.4c2.1,0.2,3.9,1,5.2,2.6c0.2,0.3,1,0.6,0.3,1.2
			c-0.5,0.4-1,0.7-1.5-0.1c-0.5-0.8-1.3-1.3-2.2-1.6c-2.5-0.8-5-0.8-7.5,0.2c-0.8,0.3-1.5,0.8-1.9,1.6c-1.1,1.8-0.4,3.8,1.7,4.6
			c2.2,0.9,4.6,1.1,6.8,1.6c1,0.3,2,0.5,2.9,1c3.4,1.7,3.7,6.5,0.6,8.8c-1,0.7-2.2,0.9-3.2,1.5C266.9,114.9,265,114.9,263.1,114.9z"
			/>
		<path d="M288,114.9c-1-0.4-2-0.8-3-1.3c-1.1-0.6-2-1.4-2.6-2.4c-0.2-0.3-0.7-0.7,0-1c0.5-0.2,0.8-0.8,1.4,0.1
			c2.5,3.6,8.3,4.1,11.5,2.1c2.6-1.6,2.4-4.9-0.3-6.3c-1.9-1-4-1.1-6.1-1.6c-1.3-0.3-2.5-0.6-3.8-1.1c-3.7-1.5-3.2-6.4-0.8-8.1
			c2.4-1.7,5-2,7.8-1.7c2.2,0.2,4.1,1,5.5,2.8c0.2,0.3,0.9,0.5,0.2,1c-0.4,0.3-0.8,0.9-1.4,0.1c-2.1-3.1-8.6-2.7-10.9-0.8
			c-2.1,1.7-1.7,4.5,0.8,5.6c2.2,1,4.6,1.1,6.9,1.7c0.5,0.1,1.1,0.3,1.6,0.5c2.8,1,4,2.5,4,5c0,2.5-1.3,4.3-3.9,5.3
			c-0.5,0.2-1.1,0.1-1.5,0.6C291.7,114.9,289.9,114.9,288,114.9z"/>
		<path d="M345.4,114.9c-1.6-0.7-3.3-1.1-4.6-2.2c-3.2-2.6-4.6-7.6-3.3-12c1.3-4.2,4.6-6.8,9-7.2c3.5-0.3,6.4,0.7,9,3
			c-0.6,1-1.2,1-2.1,0.3c-4.1-3.1-10.2-2.3-13,1.7c-3,4.2-2,10.6,2.1,13.3c3.2,2.1,7.8,2.1,10.9-0.3c0.9-0.7,1.5-0.8,2.1,0.3
			c-1.4,1.5-3.1,2.3-5.1,2.9c-0.2,0-0.4-0.1-0.4,0.3C348.4,114.9,346.9,114.9,345.4,114.9z"/>
		<path d="M395.6,114.5c-1.2,0.4-1.9,0.1-2.3-1.2c-0.3-1.1-0.9-2-1.3-3.1c-0.2-0.6-0.6-0.8-1.3-0.8c-3.6,0-7.1,0-10.7,0
			c-0.7,0-1,0.2-1.2,0.8c-0.4,1-0.9,2-1.3,3c-0.4,1.2-1.1,1.7-2.4,1.3c1-2.3,2-4.6,3.1-6.9c2-4.4,4-8.8,5.9-13.2
			c0.3-0.6,0.6-0.9,1.3-0.9c0.7,0,1,0.2,1.3,0.8c2.9,6.6,5.9,13.2,8.9,19.8C395.5,114.3,395.5,114.4,395.6,114.5z M385.3,95.3
			c-1.9,4.3-3.7,8.4-5.5,12.5c3.7,0,7.3,0,11,0C389,103.7,387.2,99.6,385.3,95.3z"/>
		<path d="M250.3,114.5c-1.4,0.4-2-0.1-2.4-1.3c-0.4-1.3-0.8-2.9-1.8-3.6c-1-0.7-2.7-0.2-4.1-0.2c-2.4,0-4.7,0-7.1,0
			c-0.9,0-1.4,0.3-1.7,1.1c-0.3,0.9-0.8,1.7-1.1,2.6c-0.7,1.5-0.7,1.5-2.4,1.4c1.4-3.2,2.8-6.3,4.3-9.5c1.6-3.6,3.2-7.2,4.8-10.8
			c0.3-0.6,0.6-0.8,1.2-0.7c0.5,0,1-0.1,1.3,0.6C244.3,101,247.3,107.7,250.3,114.5z M234.5,107.8c3.7,0,7.3,0,11,0
			c-1.8-4.1-3.6-8.2-5.5-12.5C238.1,99.7,236.3,103.7,234.5,107.8z"/>
		<path d="M406.6,104.8c0-2.9,0-5.8,0-8.8c0-0.7-0.2-0.9-0.9-0.9c-2,0-3.9,0-5.9,0c-0.5,0-0.8,0-0.8-0.7c0-0.6,0.1-0.8,0.8-0.8
			c5.1,0,10.2,0,15.4,0c0.6,0,0.7,0.1,0.8,0.7c0,0.7-0.2,0.8-0.8,0.8c-2,0-3.9,0-5.9,0c-0.8,0-1,0.2-1,1c0,5.8,0,11.6,0,17.4
			c0,0.6,0.2,1.1-0.9,1.1c-1,0-0.9-0.5-0.8-1.1C406.6,110.6,406.6,107.7,406.6,104.8z"/>
		<path d="M366.7,104.1c0,3.2,0,6.4,0,9.6c0,0.6,0,1-0.8,1c-0.9,0-0.8-0.4-0.8-1c0-6.3,0-12.7,0-19c0-0.6,0-1,0.9-1
			c0.9,0,0.8,0.5,0.8,1.1C366.7,97.8,366.7,100.9,366.7,104.1z"/>
		<path d="M424.8,104.1c0-3.2,0-6.4,0-9.6c0-0.6,0.1-0.9,0.8-0.9c0.7,0,0.9,0.2,0.9,0.9c0,6.4,0,12.9,0,19.3c0,0.7-0.1,0.9-0.8,0.9
			c-0.7,0-0.9-0.2-0.8-0.9C424.8,110.6,424.8,107.3,424.8,104.1z"/>
	</g>
	
		<text transform="matrix(1.2384 0 0 1 294.9824 144.4258)" stroke="#000000" stroke-width="0.7618" stroke-miterlimit="10" font-family="'BentonSans-Thin'" font-size="22.8127">MEMBER</text>
</g>
</svg>
