<?xml version="1.0" encoding="utf-8"?>
<!-- Generator: Adobe Illustrator 21.1.0, SVG Export Plug-In . SVG Version: 6.00 Build 0)  -->
<svg version="1.1" id="Layer_1" xmlns="http://www.w3.org/2000/svg" xmlns:xlink="http://www.w3.org/1999/xlink" x="0px" y="0px"
	 viewBox="0 0 566.3 234.2" style="enable-background:new 0 0 566.3 234.2;" xml:space="preserve">
<style type="text/css">
	.st0{display:none;}
	.st1{fill:#2C2C2C;}
	.st2{fill:#3E3E3E;}
	.st3{fill:#333333;}
	.st4{font-family:'ArialMT';}
	.st5{font-size:22.8127px;}
	.st6{fill:none;stroke:#000000;stroke-width:0.7618;stroke-miterlimit:10;}
</style>
<g id="Layer_1_1_" class="st0">
</g>
<g id="Layer_2">
</g>
<g id="Layer_3">
	<g>
		<path d="M498.4,57.2c0.7,0.4,1.6,0.4,2.4,0.7c12.3,3.5,17.1,18.9,8.9,28.7c-3.7,4.4-8.3,6.7-14.1,6.6c-3.4,0-6.8,0-10.5,0
			c11,9.8,21.9,19.4,33,29.2c-3.6,0-6.7,0-9.9,0c-0.5,0-0.8-0.4-1.2-0.7c-7.8-6.9-15.5-13.8-23.3-20.7c-2.2-2-4.5-3.9-6.9-6.1
			c0,0.7,0,1.1,0,1.5c0,8.3,0,16.6,0,24.8c0,1-0.2,1.3-1.2,1.3c-1.5-0.1-3-0.1-4.6,0c-1,0.1-1.2-0.3-1.2-1.2c0-11.1,0-22.1,0-33.2
			c0-10.3,0-20.6,0-30.8C479.4,57.2,488.9,57.2,498.4,57.2z M476.8,75.2c0,3.3,0,6.6,0,9.8c0,1,0.2,1.3,1.2,1.3
			c5.9-0.1,11.8,0,17.7,0c4.1,0,7.3-1.8,9.4-5.3c2.2-3.6,2.2-7.4,0.2-11.2c-1.9-3.5-4.9-5.5-8.9-5.6c-6.2-0.2-12.5,0-18.7-0.1
			c-0.9,0-1,0.3-1,1.1C476.8,68.6,476.8,71.9,476.8,75.2z"/>
		<path d="M358.2,57.2c1,0.3,2,0.6,3.1,0.9c12,4,16.3,18.9,8.1,28.7c-3.6,4.2-8.1,6.4-13.7,6.4c-3.4,0-6.9,0-10.7,0
			c11,9.8,21.8,19.4,32.7,29c-0.4,0.4-0.7,0.2-1.1,0.2c-2.6,0-5.2,0-7.8,0c-0.8,0-1.4-0.2-1.9-0.7c-5.3-4.8-10.7-9.5-16-14.3
			c-4.6-4.1-9.3-8.3-14.2-12.6c0,0.6,0,1.1,0,1.5c0,8.3,0,16.6,0,24.8c0,1.1-0.3,1.4-1.3,1.3c-1.6-0.1-3.2,0-4.8,0
			c-0.6,0-0.9-0.2-0.8-0.8c0-0.3,0-0.6,0-1c0-20.6,0-41.3,0-61.9c0-0.5,0-1,0-1.6C339.2,57.2,348.7,57.2,358.2,57.2z M336.6,75.2
			c0,3.3,0,6.6,0,10c0,0.9,0.2,1.2,1.1,1.1c6,0,11.9,0,17.9,0c4.1,0,7.3-1.8,9.4-5.4c4.2-7-0.2-16.3-8.6-16.7
			c-6.3-0.3-12.5,0-18.8-0.1c-0.8,0-1,0.3-1,1C336.7,68.5,336.6,71.9,336.6,75.2z"/>
		<path d="M434.1,57.2c4.9,11.2,9.8,22.4,14.7,33.6c4.5,10.2,8.9,20.3,13.4,30.5c0.2,0.4,0.4,0.7,0.3,1.2c-2.2,0-4.5,0-6.7,0
			c-0.7,0-0.8-0.5-1-1c-2.6-6-5.3-12-7.9-18c-0.4-0.9-0.8-1.2-1.9-1.2c-9.1,0-18.2,0-27.4,0c-1,0-1.5,0.3-1.8,1.2
			c-2.6,6-5.2,12-7.8,18c-0.3,0.7-0.7,1-1.5,1c-1.7-0.1-3.4-0.1-5.2,0c-1,0-1.3-0.1-0.8-1.2c2.5-5.6,4.9-11.3,7.4-16.9
			c6.8-15.4,13.5-30.8,20.3-46.1c0.2-0.4,0.3-0.7,0.5-1.1C430.6,57.2,432.3,57.2,434.1,57.2z M431.4,68.3c-4.1,9.2-8,18.1-12,27.1
			c0.5,0,0.7,0,1,0c7.2,0,14.4,0,21.6,0c1.1,0,1.1-0.3,0.7-1.2c-2.4-5.5-4.9-11-7.3-16.6C434.2,74.6,432.9,71.6,431.4,68.3z"/>
		<path d="M271.8,57.2c1,3.1,2.4,6.1,3.6,9.1c5.8,14.3,11.7,28.5,17.5,42.8c0.2,0.4,0.4,0.9,0.7,1.5c0.9-2.3,1.8-4.4,2.6-6.5
			c6.1-15.2,12.3-30.4,18.4-45.6c0.2-0.4,0.4-0.9,0.6-1.3c2.4,0,4.8,0,7.2,0c-2.8,7.1-5.6,14.2-8.5,21.2
			c-5.8,14.4-11.6,28.7-17.4,43.1c-0.3,0.7-0.6,1-1.4,1c-1.4-0.1-3,0.4-4-0.2c-1.2-0.7-1.3-2.5-1.9-3.9c-8.3-20.4-16.7-40.8-25-61.2
			C266.9,57.2,269.4,57.2,271.8,57.2z"/>
		<path d="M414.9,57.2c-2.2,6.2-4.3,12.3-6.5,18.5c-5.3,15.2-10.6,30.4-15.8,45.6c-0.3,0.9-0.7,1.2-1.6,1.2c-1.6-0.1-3.2-0.1-4.8,0
			c-1.1,0.1-1.2-0.3-0.8-1.2c3.7-10.4,7.3-20.9,10.9-31.3s7.3-20.9,10.9-31.3c0.2-0.4,0.4-0.9,0.3-1.4
			C409.9,57.2,412.4,57.2,414.9,57.2z"/>
	</g>
	<g>
		<path class="st1" d="M147.3,57.2c2.1,0.6,4.2,0.7,6.3,0.9c5.4,0.7,10.7,1.4,16.1,2.1c5.2,0.7,10.4,1.3,15.7,2s10.7,1.4,16,2.1
			c5.3,0.7,10.6,1.4,15.9,2c1.5,0.2,2.9,0.3,4.4,0.6c0.5,0.1,1.1,0.1,1,0.9c-0.1,0.1-0.2,0.2-0.2,0.3c-2.7,7.5-5.4,15.1-8.1,22.6
			c-1.8,5.1-3.6,10.2-5.4,15.3c-3.4,9.4-6.8,18.8-10.1,28.2c-1.5,4-3,8.1-4.4,12.2c-1,2.9-2.2,5.7-3,8.7c-0.6,0.6-1.3,0.5-2.1,0.3
			c-14.3-3.3-28.7-6.6-43-9.9c-0.2,0-0.3-0.1-0.4-0.2c0-29.4,0-58.7,0-88.1C146.3,57.2,146.8,57.2,147.3,57.2z"/>
		<path class="st2" d="M145.8,57.2c0,29.4,0,58.7,0,88.1c-4,1-8.1,1.9-12.1,2.9c-10.5,2.4-21.1,4.8-31.6,7.3c-0.4,0.1-0.8,0.4-1.2,0
			c0-0.2-0.1-0.4-0.2-0.6c-2-5.9-4-11.7-6.1-17.5c-1.7-4.9-3.5-9.8-5.2-14.7c-3.3-9.3-6.7-18.7-10-28c-1.5-4-2.9-8.1-4.4-12.1
			c-1.8-5.1-3.6-10.3-5.4-15.4c4.1-0.6,8.3-1.1,12.4-1.7c5.3-0.7,10.5-1.3,15.8-2c4.7-0.6,9.5-1.2,14.2-1.8
			c6.6-0.9,13.2-1.7,19.8-2.6c4.1-0.5,8.2-1,12.3-1.5c0.3,0,0.6,0,0.8-0.2C145.2,57.2,145.5,57.2,145.8,57.2z"/>
		<path class="st1" d="M47.7,78.6c3.4-0.8,6.7-1.9,10-2.8c1.4-0.4,1.4-0.4,1.2,1.1c-0.7,7.7-1.4,15.5-2.2,23.2
			c-0.5,5.1-1,10.2-1.4,15.4c-0.1,0.9-0.4,0.8-1,0.6c-2.2-0.6-4.3-1.6-6.6-1.9C47.7,102.3,47.7,90.4,47.7,78.6z"/>
		<path class="st3" d="M69.5,67.1c1.8,5.1,3.6,10.3,5.4,15.4c1.4,4.1,2.9,8.1,4.4,12.1c3.3,9.3,6.7,18.7,10,28
			c1.8,4.9,3.5,9.8,5.2,14.7c2.1,5.8,4.1,11.6,6.2,17.4c0.1,0.2,0.1,0.4,0.2,0.6c-4.2-2.4-8.5-4.8-12.7-7.1
			c-9.4-5.3-18.8-10.7-28.2-16c-0.9-0.5-1.1-1-0.9-2c1.2-7.3,2.3-14.6,3.5-21.8c1.1-7.2,2.3-14.3,3.5-21.5c1-6.3,2-12.6,3-18.9
			C69.1,67.7,69,67.2,69.5,67.1z"/>
		<path class="st3" d="M191.4,155.1c0.7-3,2-5.8,3-8.7c1.4-4.1,2.9-8.1,4.4-12.2c3.4-9.4,6.8-18.8,10.1-28.2
			c1.8-5.1,3.6-10.2,5.4-15.3c2.7-7.5,5.4-15.1,8.1-22.6c0-0.1,0.1-0.2,0.2-0.3c0.5,2.8,1,5.6,1.4,8.4c1,6.3,2,12.6,3,18.9
			c1.2,7.3,2.3,14.6,3.5,22c0.7,4.5,1.4,9.1,2.2,13.6c0.1,0.8-0.1,1.2-0.8,1.6c-10.6,6-21.1,12-31.7,18
			C197.4,151.8,194.4,153.4,191.4,155.1z"/>
		<path class="st1" d="M244.2,96.5c0,5.4,0,10.9,0,16.3c0,0.9-0.2,1.3-1.1,1.5c-2,0.5-3.9,1.2-5.8,1.8c-0.6,0.2-0.7,0.1-0.8-0.5
			c-0.4-4.1-0.8-8.3-1.2-12.4c-0.5-4.8-0.9-9.7-1.4-14.5c-0.4-4.2-0.7-8.4-1.1-12.6c-0.1-0.6,0.2-0.6,0.6-0.5c3.4,1,6.7,2,10.1,2.9
			c0.7,0.2,0.6,0.7,0.6,1.2C244.2,85.3,244.2,90.9,244.2,96.5z"/>
	</g>
	<g>
		<path d="M479,155.9c0.1-0.2-0.1-0.2-0.3-0.3c-5.7-1.6-8-7.4-7.3-12.3c0.7-4.4,3-7.5,7.4-8.6c5.9-1.5,12.1,1,13.4,8
			c1.1,5.5-1.4,11.1-6.8,12.8c-0.3,0.1-0.8-0.1-1.1,0.4C482.6,155.9,480.8,155.9,479,155.9z M481.9,135.9c-5.2-0.2-8.9,3.6-8.9,9.1
			c-0.1,5.5,3.7,9.4,8.9,9.4c5.3,0,9.1-3.9,9-9.3C490.9,139.6,487.2,135.9,481.9,135.9z"/>
		<path d="M349.6,155.9c-0.1-0.4-0.4-0.3-0.7-0.4c-5.1-1.5-7.4-6.8-6.9-11.4c0.4-4,2.1-7.3,6-8.9c5.5-2.3,11.5-0.2,13.9,4.6
			c2.8,5.6,0.6,12.8-4.6,15.3c-0.7,0.3-1.4,0.3-2,0.8C353.4,155.9,351.5,155.9,349.6,155.9z M352.5,135.9c-4.9-0.2-8.8,3.2-8.9,9.1
			c-0.1,5.5,3.7,9.4,8.9,9.4c5.3,0,9-3.9,9-9.4C361.5,139.6,357.9,135.9,352.5,135.9z"/>
		<path d="M518.6,155.6c-0.8,0.2-1-0.5-1.4-0.9c-4.3-5.3-8.7-10.6-13-16c-0.4,0.3-0.2,0.8-0.2,1.1c0,4.9,0,9.8,0,14.6
			c0,0.6,0.2,1.1-0.8,1.1s-0.9-0.5-0.9-1.1c0-6.3,0-12.6,0-18.8c0-0.4-0.2-0.9,0.2-1.1c0.5-0.2,0.8,0.3,1,0.6
			c4.2,5.1,8.3,10.2,12.5,15.3c0.2,0.3,0.5,0.6,0.8,0.9c0.3-0.3,0.2-0.7,0.2-1c0-4.7,0-9.4,0-14c0-1.7,0-1.7,1.7-2
			C518.6,141.5,518.6,148.6,518.6,155.6z"/>
		<path d="M297.8,155.9c-0.4-0.5-1-0.5-1.5-0.6c-1.6-0.6-2.9-1.5-3.8-2.9c-0.2-0.3-0.9-0.7-0.2-1.1c0.5-0.4,1-0.7,1.6,0.2
			c2.5,3.5,8.3,3.9,11.6,1.9c1.3-0.8,1.8-2.1,1.6-3.6c-0.1-1.4-1.1-2.3-2.3-2.8c-1.9-0.8-3.9-1.1-5.9-1.5c-1.1-0.2-2.2-0.5-3.3-1
			c-1.7-0.7-2.9-1.8-3.1-3.8s0.5-3.7,2.3-4.8c2.3-1.4,4.8-1.7,7.5-1.4c2.1,0.2,3.9,1,5.2,2.6c0.2,0.3,1,0.6,0.3,1.2
			c-0.5,0.4-1,0.7-1.5-0.1c-0.5-0.8-1.3-1.3-2.2-1.6c-2.5-0.8-5-0.8-7.5,0.2c-0.8,0.3-1.5,0.8-1.9,1.6c-1.1,1.8-0.4,3.8,1.7,4.6
			c2.2,0.9,4.6,1.1,6.8,1.6c1,0.3,2,0.5,2.9,1c3.4,1.7,3.7,6.5,0.6,8.8c-1,0.7-2.2,0.9-3.2,1.5C301.6,155.9,299.7,155.9,297.8,155.9
			z"/>
		<path d="M322.7,155.9c-1-0.4-2-0.8-3-1.3c-1.1-0.6-2-1.4-2.6-2.4c-0.2-0.3-0.7-0.7,0-1c0.5-0.2,0.8-0.8,1.4,0.1
			c2.5,3.6,8.3,4.1,11.5,2.1c2.6-1.6,2.4-4.9-0.3-6.3c-1.9-1-4-1.1-6.1-1.6c-1.3-0.3-2.5-0.6-3.8-1.1c-3.7-1.5-3.2-6.4-0.8-8.1
			c2.4-1.7,5-2,7.8-1.7c2.2,0.2,4.1,1,5.5,2.8c0.2,0.3,0.9,0.5,0.2,1c-0.4,0.3-0.8,0.9-1.4,0.1c-2.1-3.1-8.6-2.7-10.9-0.8
			c-2.1,1.7-1.7,4.5,0.8,5.6c2.2,1,4.6,1.1,6.9,1.7c0.5,0.1,1.1,0.3,1.6,0.5c2.8,1,4,2.5,4,5s-1.3,4.3-3.9,5.3
			c-0.5,0.2-1.1,0.1-1.5,0.6C326.4,155.9,324.6,155.9,322.7,155.9z"/>
		<path d="M380.1,155.9c-1.6-0.7-3.3-1.1-4.6-2.2c-3.2-2.6-4.6-7.6-3.3-12c1.3-4.2,4.6-6.8,9-7.2c3.5-0.3,6.4,0.7,9,3
			c-0.6,1-1.2,1-2.1,0.3c-4.1-3.1-10.2-2.3-13,1.7c-3,4.2-2,10.6,2.1,13.3c3.2,2.1,7.8,2.1,10.9-0.3c0.9-0.7,1.5-0.8,2.1,0.3
			c-1.4,1.5-3.1,2.3-5.1,2.9c-0.2,0-0.4-0.1-0.4,0.3C383.1,155.9,381.6,155.9,380.1,155.9z"/>
		<path d="M430.3,155.5c-1.2,0.4-1.9,0.1-2.3-1.2c-0.3-1.1-0.9-2-1.3-3.1c-0.2-0.6-0.6-0.8-1.3-0.8c-3.6,0-7.1,0-10.7,0
			c-0.7,0-1,0.2-1.2,0.8c-0.4,1-0.9,2-1.3,3c-0.4,1.2-1.1,1.7-2.4,1.3c1-2.3,2-4.6,3.1-6.9c2-4.4,4-8.8,5.9-13.2
			c0.3-0.6,0.6-0.9,1.3-0.9c0.7,0,1,0.2,1.3,0.8c2.9,6.6,5.9,13.2,8.9,19.8C430.2,155.3,430.2,155.4,430.3,155.5z M420,136.3
			c-1.9,4.3-3.7,8.4-5.5,12.5c3.7,0,7.3,0,11,0C423.7,144.7,421.9,140.6,420,136.3z"/>
		<path d="M285,155.5c-1.4,0.4-2-0.1-2.4-1.3c-0.4-1.3-0.8-2.9-1.8-3.6c-1-0.7-2.7-0.2-4.1-0.2c-2.4,0-4.7,0-7.1,0
			c-0.9,0-1.4,0.3-1.7,1.1c-0.3,0.9-0.8,1.7-1.1,2.6c-0.7,1.5-0.7,1.5-2.4,1.4c1.4-3.2,2.8-6.3,4.3-9.5c1.6-3.6,3.2-7.2,4.8-10.8
			c0.3-0.6,0.6-0.8,1.2-0.7c0.5,0,1-0.1,1.3,0.6C279,142,282,148.7,285,155.5z M269.2,148.8c3.7,0,7.3,0,11,0
			c-1.8-4.1-3.6-8.2-5.5-12.5C272.8,140.7,271,144.7,269.2,148.8z"/>
		<path d="M441.3,145.8c0-2.9,0-5.8,0-8.8c0-0.7-0.2-0.9-0.9-0.9c-2,0-3.9,0-5.9,0c-0.5,0-0.8,0-0.8-0.7c0-0.6,0.1-0.8,0.8-0.8
			c5.1,0,10.2,0,15.4,0c0.6,0,0.7,0.1,0.8,0.7c0,0.7-0.2,0.8-0.8,0.8c-2,0-3.9,0-5.9,0c-0.8,0-1,0.2-1,1c0,5.8,0,11.6,0,17.4
			c0,0.6,0.2,1.1-0.9,1.1c-1,0-0.9-0.5-0.8-1.1C441.3,151.6,441.3,148.7,441.3,145.8z"/>
		<path d="M401.4,145.1c0,3.2,0,6.4,0,9.6c0,0.6,0,1-0.8,1c-0.9,0-0.8-0.4-0.8-1c0-6.3,0-12.7,0-19c0-0.6,0-1,0.9-1s0.8,0.5,0.8,1.1
			C401.4,138.8,401.4,141.9,401.4,145.1z"/>
		<path d="M459.5,145.1c0-3.2,0-6.4,0-9.6c0-0.6,0.1-0.9,0.8-0.9c0.7,0,0.9,0.2,0.9,0.9c0,6.4,0,12.9,0,19.3c0,0.7-0.1,0.9-0.8,0.9
			c-0.7,0-0.9-0.2-0.8-0.9C459.5,151.6,459.5,148.3,459.5,145.1z"/>
	</g>
	<text transform="matrix(1.2384 0 0 1 329.6491 185.4258)" class="st4 st5">MEMBER</text>
	<text transform="matrix(1.2384 0 0 1 329.6491 185.4258)" class="st6 st4 st5">MEMBER</text>
</g>
</svg>
