<svg xmlns="http://www.w3.org/2000/svg" viewBox="0 0 729.53 81.19"><defs><style>.cls-1{fill:#e9bf00;}.cls-2{fill:#8b4700;}</style></defs><title>Asset 9whiteBG_orange</title><g id="Layer_2" data-name="Layer 2"><g id="outlined"><g id="outlined_whiteBG"><path class="cls-1" d="M13.06,79.88a52.46,52.46,0,0,0,9.19.89q12.49,0,20-6.82a23.07,23.07,0,0,0,3.43-3.86Q23.81,72.32,2,74.84l.17,2.28A88.44,88.44,0,0,0,13.06,79.88Z"/><path class="cls-1" d="M104.39,80.77q14.94,0,23.35-9.17a29.18,29.18,0,0,0,5.64-9.15q-28,2-55.93,4.58a27.75,27.75,0,0,0,3.45,4.65Q89.29,80.77,104.39,80.77Z"/><path class="cls-1" d="M180.45,78.32V59.37q-8.34.48-16.67,1V78.32Z"/><path class="cls-1" d="M229.35,81.19V56.93q-13.13.55-26.25,1.22l24.68,23Z"/><path class="cls-1" d="M281.66,80.77l9.45-25.86q-10.53.24-21.05.55l10.24,25.3Z"/><path class="cls-1" d="M314.84,80.77l10.63-26.42q-10.77.12-21.54.32l9.76,26.1Z"/><path class="cls-1" d="M365.28,78.32l4.91-11h30.72l4.81,11h18.91l-11.5-23.77q-12.66-.21-25.34-.32H375.41l0-.06c-4.55,0-9.11-.05-13.66-.05h-2.72l-12,24.19Z"/><path class="cls-1" d="M490.64,78.32V62.07H461.12V55.7q-9-.29-18.08-.51V78.32Z"/><path class="cls-1" d="M577.15,78.32l-13.74-17.7q-11.41-.73-22.84-1.39l14.74,19.09Z"/><path class="cls-1" d="M528.35,78.32V58.54q-8.93-.47-17.87-.89V78.32Z"/><path class="cls-1" d="M642.9,78.32V66.75q-23.5-2.12-47.07-3.88V78.32Z"/><path class="cls-1" d="M729.53,78.32l-2-2.77Q716.44,74.24,705.28,73l3.61,5.31Z"/><path class="cls-1" d="M686.11,78.32V71q-8.77-.91-17.55-1.79v9.15Z"/><path class="cls-2" d="M46,43.68q-3.84-5.22-15-11.39l-8.88-4.91a11.91,11.91,0,0,1-3.92-3.13,6,6,0,0,1-1.31-3.71,5.29,5.29,0,0,1,2.19-4.47,9.81,9.81,0,0,1,6-1.65,24.16,24.16,0,0,1,8.36,1.88,60.25,60.25,0,0,1,10.4,5.33V3.87A81.15,81.15,0,0,0,33.44.94,44.68,44.68,0,0,0,24.71,0Q13.79,0,6.9,5.85a18.78,18.78,0,0,0-6.9,15A21,21,0,0,0,3.6,32.91q3.6,5.33,11.08,9.56l5.12,2.87,2.51,1.46q10.14,5.8,10.14,10.45a6.29,6.29,0,0,1-2.85,5.3A12.59,12.59,0,0,1,22,64.63a28.55,28.55,0,0,1-9.53-1.72,65.93,65.93,0,0,1-11.89-6L2,74.84q21.84-2.53,43.75-4.74a23.78,23.78,0,0,0,4.12-14A20.33,20.33,0,0,0,46,43.68Z"/><path class="cls-2" d="M136.15,2.56H120V46q0,8.88-3.79,13.53t-11,4.65q-7.47,0-11.15-5t-3.68-15V2.56H72.52V46.13q0,12.62,4.93,20.9,27.91-2.54,55.93-4.57A44.71,44.71,0,0,0,136.15,46Z"/><path class="cls-2" d="M212.69,2.56V44.3L165.51.1h-1.72V60.38q8.33-.53,16.67-1V37l22.66,21.15q13.11-.66,26.25-1.22V2.56Z"/><path class="cls-2" d="M329.42,2.56,314.84,43.42,298.91.1H297.5L281.66,43.42,266.93,2.56H248.65l21.42,52.91q10.52-.31,21.05-.55l6.38-17.45,6.44,17.21q10.76-.2,21.54-.32L346.29,2.56Z"/><path class="cls-2" d="M385.71.21,359.05,54.13h2.72c4.56,0,9.11,0,13.66.05L385.5,30.51l9.82,23.72h-7.53q12.68.1,25.34.32L386.86.21Z"/><path class="cls-2" d="M443,2.56V55.19q9,.23,18.08.51V2.56Z"/><path class="cls-2" d="M574.9,2.56H553.37l-25,33v-33H510.48V57.65q8.94.42,17.87.89V43.42l12.22,15.81q11.43.65,22.84,1.39l-17.08-22Z"/><path class="cls-2" d="M613.38,62.38v-15H638.3V31.87H613.38V18.18h29.1V2.56H595.83V62.87q23.58,1.76,47.07,3.88V62.38Z"/><path class="cls-2" d="M716.91,37.36a21.88,21.88,0,0,0,3.63-12.54,20.16,20.16,0,0,0-2.33-9.43,21.13,21.13,0,0,0-6.56-7.5,25.45,25.45,0,0,0-9.12-4.1A66,66,0,0,0,688,2.56H668.56v66.6q8.78.86,17.55,1.79V48.59h2.56L705.28,73q11.15,1.23,22.28,2.54L706.44,45.77A23.91,23.91,0,0,0,716.91,37.36Zm-16.54-2.77q-3.6,2.77-10.45,2.77h-3.81v-21h3q7.89,0,11.39,2.43t3.5,7.86A9.42,9.42,0,0,1,700.38,34.59Z"/></g></g></g></svg>